# xmcd
#
# Track frame offsets:
#	150
#	19195
#	40625
#	61397
#	81935
#	104870
#	120810
#	141837
#	159242
#	185557
#	203780
#
# Disc length: 3019 seconds
#
# Revision: 5
# Processed by: cddbd v1.5PL3 Copyright (c) Steve Scherf et al.
# Submitted via: CDex 1.50Beta5
#
DISCID=8f0bc90b
DTITLE=不二周助（甲斐田ゆき） - Eyes
DYEAR=2003
DGENRE=Soundtrack
TTITLE0=シャッターチャンスは一度だけ！
TTITLE1=Sempre Com Irmao-いつも一緒-
TTITLE2=Treasure〜窓際にある風景〜
TTITLE3=My Time
TTITLE4=The Ache Of My Heart
TTITLE5=瞳を閉じて 心のまま 僕は君を想う (Instrumental Part.1)
TTITLE6=Black Rain
TTITLE7=Feel My Soul〜闘いの中で〜
TTITLE8=Walk On (Zzz Version)
TTITLE9=大好きな気持ち
TTITLE10=Days Of Moments
EXTD=
EXTT0=
EXTT1=
EXTT2=
EXTT3=
EXTT4=
EXTT5=
EXTT6=
EXTT7=
EXTT8=
EXTT9=
EXTT10=
PLAYORDER=
